<svg id="Layer_1" xmlns="http://www.w3.org/2000/svg" xmlns:xlink="http://www.w3.org/1999/xlink" viewBox="0 0 936.7 176.8">
  <defs>
    <style>
      .cls-1 {
        fill: none;
      }

      .cls-2 {
        clip-path: url(#clip-path);
      }
	  
	  .cls-3 {
		fill: #fff;
		}
    </style>
    <clipPath id="clip-path">
      <rect class="cls-1" width="936.7" height="176.8"/>
    </clipPath>
  </defs>
  <title>Triplequote - Parallel Scala compilation</title>
  <g class="cls-2">
    <path class="cls-3" d="M176.6,48.2H164.8V41.4h11.8V16.1h7.5V41.4h23.4v6.8H184.1v49c0,23.5,14.1,26.6,21.2,26.6a18.54,18.54,0,0,0,4.1-.4v7a22.8,22.8,0,0,1-4.5.4c-9.3,0-28.4-3.4-28.4-33V48.2Z"/>
    <path class="cls-3" d="M220.8,40.9h7.5V57.8a37.93,37.93,0,0,1-.7,7.3h.4c4.5-13.7,14.4-25,28.5-25a30,30,0,0,1,5.2.5v7.5a25.35,25.35,0,0,0-4.1-.4c-13.9,0-22.6,11.8-26.6,25a61.77,61.77,0,0,0-2.7,18.7v38.5h-7.5Z"/>
    <path class="cls-3" d="M271.4,5.3h8.9v13h-8.9Zm.7,35.6h7.5v89.2h-7.5Z"/>
    <path class="cls-3" d="M302.1,40.9h7.5V51.6a47.82,47.82,0,0,1-.5,7.1h.4s7.3-20,32.1-20c23.9,0,38.5,19.1,38.5,46.7,0,28.4-16.6,46.7-39.6,46.7-23.2,0-31.2-20.2-31.2-20.2h-.4a40.26,40.26,0,0,1,.7,7.8v45.8h-7.5Zm38.3,84c17.5,0,31.7-14.4,31.7-39.4,0-24.1-12.8-39.4-31-39.4-16.4,0-31.7,11.6-31.7,39.6,0,19.8,11.1,39.2,31,39.2"/>
    <path class="cls-3" d="M395.5,5.3H403V109.8c0,12.5,6.4,13.9,10.5,13.9a20.12,20.12,0,0,0,2.7-.2v7a15.14,15.14,0,0,1-3.2.4c-5.2,0-17.5-2-17.5-18.7Z"/>
    <path class="cls-3" d="M465.6,38.8c24.3,0,36.4,19.1,36.4,40.7a42.11,42.11,0,0,1-.4,4.8H430.1c0,25.9,17.5,40.7,38.2,40.7a40.32,40.32,0,0,0,27.6-11.2L500,120a48.61,48.61,0,0,1-31.7,12.3c-25.1,0-46-18.2-46-46.5,0-30.2,20.5-47,43.3-47m28.5,38.5c-.9-21.8-13.9-31.6-28.7-31.6-16.4,0-31.6,10.7-34.8,31.6Z"/>
    <path class="cls-3" d="M557.8,38.8A45.84,45.84,0,0,1,604,85c0,26.6-20.7,47.3-46.2,47.3S511.6,111.6,511.6,85a45.84,45.84,0,0,1,46.2-46.2m0,86.1c21.2,0,38.3-17.3,38.3-39.9,0-22.1-17.1-38.9-38.3-38.9S519.5,62.9,519.5,85c-.1,22.6,17.1,39.9,38.3,39.9"/>
    <path class="cls-3" d="M618.6,40.9h7.5V94.8c0,15.5,2,30.1,21.9,30.1,22.3,0,36.6-19.6,36.6-40.5V40.9h7.5v89.2h-7.5V114.4a37.93,37.93,0,0,1,.7-7.3h-.4c-3,8.4-15.3,25.1-36.9,25.1-21.9,0-29.4-12.1-29.4-34.8Z"/>
    <path class="cls-3" d="M754.1,38.8A45.84,45.84,0,0,1,800.3,85c0,26.6-20.7,47.3-46.2,47.3S707.9,111.6,707.9,85a45.84,45.84,0,0,1,46.2-46.2m0,86.1c21.2,0,38.3-17.3,38.3-39.9,0-22.1-17.1-38.9-38.3-38.9S715.8,62.9,715.8,85c0,22.6,17.1,39.9,38.3,39.9"/>
    <path class="cls-3" d="M819,48.2H807.2V41.4H819V16.1h7.5V41.4h23.4v6.8H826.5v49c0,23.5,14.1,26.6,21.2,26.6a18.55,18.55,0,0,0,4.1-.4v7a22.8,22.8,0,0,1-4.5.4c-9.3,0-28.4-3.4-28.4-33V48.2Z"/>
    <path class="cls-3" d="M900.3,38.8c24.3,0,36.4,19.1,36.4,40.7a42.12,42.12,0,0,1-.4,4.8H864.8c0,25.9,17.5,40.7,38.2,40.7a40.32,40.32,0,0,0,27.6-11.2l4.1,6.2A48.61,48.61,0,0,1,903,132.3c-25.1,0-46-18.2-46-46.5,0-30.2,20.5-47,43.3-47m28.5,38.5c-.9-21.8-13.9-31.6-28.7-31.6-16.4,0-31.6,10.7-34.8,31.6Z"/>
    <rect class="cls-3" x="556.2" y="124.9" width="49.2" height="7.3"/>
    <rect class="cls-3" x="122.4" width="2.1" height="176.8"/>
    <rect class="cls-3" y="15.8" width="8.8" height="29.6"/>
    <rect class="cls-3" x="14.5" y="15.8" width="8.8" height="29.6"/>
    <rect class="cls-3" x="42.9" y="15.8" width="8.8" height="29.6"/>
    <rect class="cls-3" x="57.3" y="15.8" width="8.8" height="29.6"/>
    <rect class="cls-3" x="85.8" y="15.8" width="8.8" height="29.6"/>
    <rect class="cls-3" x="100.2" y="15.8" width="8.8" height="29.6"/>
  </g>
</svg>
